<?xml version="1.0" encoding="UTF-8" standalone="no"?>
<!DOCTYPE svg PUBLIC "-//W3C//DTD SVG 1.1//EN" "http://www.w3.org/Graphics/SVG/1.1/DTD/svg11.dtd">
<svg width="100%" height="100%" viewBox="0 0 256 256" version="1.1" xmlns="http://www.w3.org/2000/svg" xmlns:xlink="http://www.w3.org/1999/xlink" xml:space="preserve" style="fill-rule:evenodd;clip-rule:evenodd;stroke-linecap:round;stroke-linejoin:round;stroke-miterlimit:1.5;">
    <g transform="matrix(1.44637,-1.44637,2.58089,2.58089,-138.371,148.836)">
        <rect x="56.485" y="23.582" width="85.601" height="47.972" style="fill:none;stroke:rgb(46,16,82);stroke-width:1.01px;"/>
    </g>
    <g transform="matrix(1.16729,0,0,1.16729,-21.4134,-21.4134)">
        <g transform="matrix(1,0,0,1,-8.27691,5.33681)">
            <path d="M94.946,64.146L78.177,92.982L65.847,141.016L64.732,147.712L77.625,131.201L94.946,64.146Z" style="fill:rgb(46,16,82);"/>
            <path d="M95.036,63.928L95.106,63.973L95.157,64.04L95.18,64.121L95.174,64.205L77.853,131.26L77.836,131.305L77.811,131.346L64.917,147.857L64.86,147.909L64.789,147.94L64.712,147.947L64.637,147.927L64.572,147.885L64.525,147.824L64.499,147.751L64.499,147.673L65.617,140.967L77.949,92.923L77.973,92.863L94.743,64.027L94.797,63.963L94.87,63.923L94.954,63.91L95.036,63.928ZM78.397,93.072L66.078,141.064L65.116,146.836L77.409,131.095L94.291,65.742L78.397,93.072Z" style="fill:white;"/>
        </g>
        <g transform="matrix(1,0,0,1,45.5009,20.8194)">
            <path d="M41.418,48.043L46.737,75.036L28.785,125.519L24.08,115.694L41.418,48.043Z" style="fill:rgb(46,16,82);"/>
            <path d="M41.502,47.822L41.57,47.863L41.621,47.923L41.649,47.997L46.968,74.99L46.972,75.053L46.959,75.115L29.007,125.598L28.969,125.666L28.91,125.719L28.837,125.749L28.758,125.753L28.682,125.731L28.618,125.685L28.573,125.62L23.867,115.796L23.845,115.717L23.852,115.636L41.189,47.984L41.222,47.912L41.276,47.854L41.346,47.818L41.424,47.807L41.502,47.822ZM24.329,115.67L28.753,124.906L46.493,75.018L41.388,49.109L24.329,115.67Z" style="fill:white;"/>
        </g>
        <g transform="matrix(1,0,0,1,78.0825,37.0087)">
            <path d="M9.184,32.211L21.133,55.97L21.513,59.714L14.196,58.739L9.184,32.211Z" style="fill:rgb(46,16,82);"/>
            <path d="M9.251,31.985L9.295,32.003L9.335,32.03L9.369,32.065L9.395,32.105L21.343,55.865L21.359,55.905L21.367,55.947L21.747,59.69L21.747,59.737L21.738,59.784L21.719,59.827L21.693,59.866L21.659,59.899L21.619,59.924L21.575,59.941L21.529,59.949L21.482,59.948L14.165,58.973L14.117,58.961L14.073,58.94L14.034,58.91L14.002,58.873L13.979,58.83L13.965,58.783L8.953,32.255L8.948,32.207L8.954,32.159L8.97,32.113L8.994,32.072L9.026,32.036L9.065,32.008L9.109,31.988L9.155,31.977L9.203,31.976L9.251,31.985ZM14.396,58.528L21.248,59.441L20.903,56.038L9.727,33.814L14.396,58.528Z" style="fill:white;"/>
        </g>
        <g transform="matrix(1,0,0,1,78.0825,37.0087)">
            <path d="M-3.839,109.023L-1.609,114.871L21.513,59.714L14.218,58.657L-3.839,109.023Z" style="fill:rgb(46,16,82);"/>
            <path d="M14.252,58.424L21.546,59.481L21.615,59.502L21.674,59.542L21.718,59.598L21.743,59.665L21.747,59.736L21.73,59.805L-1.392,114.962L-1.428,115.021L-1.481,115.068L-1.544,115.097L-1.613,115.106L-1.682,115.095L-1.745,115.064L-1.795,115.015L-1.829,114.955L-4.06,109.107L-4.073,109.053L-4.074,108.997L-4.061,108.943L13.996,58.577L14.026,58.52L14.07,58.474L14.125,58.44L14.187,58.423L14.252,58.424ZM-3.588,109.02L-1.599,114.237L21.178,59.904L14.375,58.918L-3.588,109.02Z" style="fill:white;"/>
        </g>
        <g transform="matrix(1,0,0,1,45.5009,20.8194)">
            <path d="M10.72,132.537L24.691,136.328L31.174,130.383L28.785,125.519L24.08,115.694L10.72,132.537Z" style="fill:rgb(46,16,82);"/>
            <path d="M24.128,115.464L24.169,115.476L24.207,115.496L24.242,115.523L24.27,115.555L24.292,115.593L28.997,125.416L31.385,130.279L31.401,130.32L31.408,130.362L31.408,130.405L31.4,130.448L31.385,130.488L31.362,130.525L31.333,130.557L24.85,136.502L24.819,136.526L24.784,136.545L24.747,136.557L24.708,136.563L24.668,136.563L24.629,136.555L10.659,132.765L10.619,132.75L10.583,132.728L10.551,132.701L10.524,132.668L10.504,132.631L10.491,132.591L10.485,132.549L10.487,132.506L10.496,132.465L10.513,132.426L10.536,132.391L23.895,115.548L23.925,115.517L23.96,115.491L24,115.473L24.041,115.462L24.085,115.459L24.128,115.464ZM11.127,132.404L24.627,136.067L30.885,130.329L28.573,125.622L24.03,116.136L11.127,132.404Z" style="fill:white;"/>
        </g>
    </g>
    <g transform="matrix(1.16729,0,0,1.16729,153.643,48.4995)">
        <g transform="matrix(1,0,0,1,-8.27691,5.33681)">
            <path d="M-32.36,110.94L-22.016,99.1L39.697,96.455L-18.817,116.092L-32.36,110.94Z" style="fill:rgb(46,16,82);"/>
            <path d="M39.761,96.228L39.829,96.259L39.883,96.31L39.919,96.376L39.933,96.449L39.923,96.523L39.89,96.59L39.838,96.644L39.772,96.678L-18.742,116.315L-18.821,116.327L-18.901,116.312L-32.444,111.16L-32.509,111.123L-32.559,111.066L-32.589,110.997L-32.595,110.922L-32.577,110.849L-32.538,110.785L-22.194,98.945L-22.146,98.903L-22.089,98.876L-22.027,98.864L39.687,96.219L39.761,96.228ZM-21.906,99.331L-31.96,110.84L-18.812,115.842L38.043,96.762L-21.906,99.331Z" style="fill:white;"/>
        </g>
        <g transform="matrix(1,0,0,1,45.5009,20.8194)">
            <path d="M-86.215,117.438L-72.725,100.333L-13.801,81.036L-27.432,98.677L-86.215,117.438Z" style="fill:rgb(46,16,82);"/>
            <path d="M-13.727,80.812L-13.66,80.847L-13.608,80.9L-13.575,80.967L-13.565,81.041L-13.579,81.115L-13.614,81.18L-27.246,98.821L-27.297,98.87L-27.361,98.901L-86.144,117.663L-86.218,117.674L-86.291,117.661L-86.357,117.626L-86.409,117.573L-86.441,117.505L-86.451,117.431L-86.437,117.358L-86.4,117.292L-72.91,100.187L-72.86,100.14L-72.798,100.109L-13.874,80.812L-13.8,80.8L-13.727,80.812ZM-72.584,100.535L-85.554,116.98L-27.574,98.475L-14.456,81.498L-72.584,100.535Z" style="fill:white;"/>
        </g>
        <g transform="matrix(1,0,0,1,78.0825,37.0087)">
            <path d="M-142.916,83.578L-118.984,79.654L-105.247,84.194L-118.482,101.489L-142.916,83.578Z" style="fill:rgb(46,16,82);"/>
            <path d="M-118.91,79.43L-105.173,83.97L-105.122,83.994L-105.079,84.029L-105.044,84.073L-105.022,84.125L-105.012,84.18L-105.015,84.236L-105.031,84.289L-105.06,84.337L-118.295,101.633L-118.331,101.67L-118.374,101.699L-118.423,101.718L-118.474,101.725L-118.526,101.721L-118.576,101.705L-118.621,101.679L-143.055,83.768L-143.095,83.731L-143.126,83.685L-143.145,83.633L-143.151,83.578L-143.145,83.523L-143.126,83.472L-143.095,83.426L-143.055,83.388L-143.007,83.361L-142.954,83.346L-119.022,79.421L-118.966,79.419L-118.91,79.43ZM-142.324,83.72L-118.529,101.163L-105.635,84.314L-119.003,79.895L-142.324,83.72Z" style="fill:white;"/>
        </g>
        <g transform="matrix(1,0,0,1,78.0825,37.0087)">
            <path d="M-118.272,79.047L-108.137,67.664L-128.614,61.127L-142.781,83.311L-118.272,79.047Z" style="fill:rgb(46,16,82);"/>
            <path d="M-128.542,60.903L-108.065,67.44L-108.018,67.461L-107.976,67.492L-107.943,67.531L-107.918,67.577L-107.904,67.627L-107.902,67.679L-107.911,67.73L-107.931,67.778L-107.961,67.821L-118.096,79.204L-118.135,79.239L-118.181,79.264L-118.231,79.279L-142.741,83.544L-142.795,83.547L-142.849,83.537L-142.898,83.516L-142.942,83.483L-142.977,83.442L-143.002,83.394L-143.015,83.341L-143.015,83.287L-143.003,83.234L-142.98,83.185L-128.813,61L-128.78,60.96L-128.74,60.928L-128.694,60.906L-128.644,60.894L-128.593,60.893L-128.542,60.903ZM-142.295,82.988L-118.393,78.829L-108.554,67.778L-128.513,61.407L-142.295,82.988Z" style="fill:white;"/>
        </g>
        <g transform="matrix(1,0,0,1,45.5009,20.8194)">
            <path d="M-75.37,83.889L-14.01,80.692L-37.508,70.431L-96.336,77.528L-75.37,83.889Z" style="fill:rgb(46,16,82);"/>
            <path d="M-37.474,70.198L-37.414,70.215L-13.915,80.476L-13.85,80.519L-13.802,80.581L-13.777,80.655L-13.778,80.734L-13.804,80.808L-13.854,80.869L-13.921,80.91L-13.997,80.927L-75.358,84.124L-75.438,84.114L-96.404,77.754L-96.476,77.718L-96.531,77.66L-96.564,77.588L-96.571,77.508L-96.55,77.431L-96.505,77.365L-96.441,77.317L-96.364,77.295L-37.536,70.197L-37.474,70.198ZM-95.196,77.628L-75.341,83.651L-15.018,80.508L-37.544,70.673L-95.196,77.628Z" style="fill:white;"/>
        </g>
    </g>
    <g transform="matrix(-0.708621,-0.927592,0.927592,-0.708621,163.356,325.664)">
        <g transform="matrix(1,0,0,1,-8.27691,5.33681)">
            <path d="M177.095,46.072L144.886,72.617L141.752,102.048L162.362,84.791L177.095,46.072Z" style="fill:rgb(46,16,82);"/>
            <path d="M162.513,84.972L141.903,102.229L141.843,102.265L141.776,102.283L141.706,102.28L141.641,102.256L141.585,102.215L141.544,102.159L141.52,102.093L141.517,102.023L144.652,72.592L144.666,72.533L144.695,72.479L144.736,72.435L176.945,45.891L177.012,45.852L177.087,45.837L177.164,45.847L177.232,45.881L177.287,45.935L177.321,46.004L177.331,46.081L177.315,46.156L162.582,84.875L162.554,84.928L162.513,84.972ZM176.559,46.82L145.11,72.737L142.048,101.493L162.163,84.65L176.559,46.82Z" style="fill:white;"/>
        </g>
        <g transform="matrix(1,0,0,1,45.5009,20.8194)">
            <path d="M123.414,30.456L108.491,69.802L113.653,84.984L128.885,71.787L123.414,30.456Z" style="fill:rgb(46,16,82);"/>
            <path d="M129.04,71.965L113.807,85.162L113.752,85.198L113.689,85.217L113.624,85.218L113.56,85.201L113.504,85.167L113.459,85.119L113.43,85.06L108.268,69.878L108.257,69.825L108.257,69.771L108.271,69.718L123.193,30.373L123.223,30.318L123.266,30.273L123.319,30.241L123.379,30.224L123.441,30.222L123.501,30.238L123.555,30.268L123.6,30.312L123.631,30.366L123.647,30.426L129.119,71.756L129.119,71.814L129.106,71.87L129.078,71.922L129.04,71.965ZM123.303,31.413L108.741,69.806L113.763,84.577L128.635,71.692L123.303,31.413Z" style="fill:white;"/>
        </g>
        <g transform="matrix(1,0,0,1,78.0825,37.0087)">
            <path d="M58.635,40.879L49.081,129.828L41.517,99.707L58.635,40.879Z" style="fill:rgb(46,16,82);"/>
            <path d="M49.176,130.043L49.097,130.063L49.016,130.054L48.942,130.019L48.886,129.96L48.852,129.885L41.288,99.764L41.281,99.702L41.291,99.641L58.409,40.813L58.442,40.743L58.496,40.688L58.565,40.654L58.642,40.643L58.718,40.658L58.785,40.697L58.835,40.755L58.865,40.827L58.869,40.904L49.315,129.853L49.292,129.932L49.244,129.998L49.176,130.043ZM58.116,43.506L41.761,99.711L48.988,128.49L58.116,43.506Z" style="fill:white;"/>
        </g>
        <g transform="matrix(1,0,0,1,78.0825,37.0087)">
            <path d="M55.671,70.198L49.101,129.616L80.6,68.716L75.747,53.453L55.671,70.198Z" style="fill:rgb(46,16,82);"/>
            <path d="M49.192,129.833L49.113,129.851L49.032,129.841L48.96,129.805L48.904,129.746L48.872,129.671L48.867,129.59L55.437,70.172L55.451,70.114L55.48,70.061L55.521,70.017L75.596,53.273L75.662,53.234L75.737,53.218L75.813,53.227L75.882,53.26L75.937,53.314L75.971,53.382L80.825,68.645L80.836,68.706L80.83,68.767L80.81,68.825L49.31,129.724L49.261,129.789L49.192,129.833ZM80.346,68.695L75.629,53.859L55.895,70.318L49.474,128.381L80.346,68.695Z" style="fill:white;"/>
        </g>
        <g transform="matrix(1,0,0,1,45.5009,20.8194)">
            <path d="M81.909,146.22L103.852,122.357L128.844,71.717L113.197,85.274L81.909,146.22Z" style="fill:rgb(46,16,82);"/>
            <path d="M82.083,146.38L82.016,146.431L81.935,146.454L81.851,146.449L81.774,146.414L81.715,146.354L81.681,146.277L81.675,146.193L81.7,146.113L112.987,85.166L113.043,85.096L128.69,71.539L128.759,71.497L128.838,71.481L128.917,71.493L128.988,71.53L129.043,71.59L129.074,71.664L129.078,71.744L129.056,71.821L104.063,122.461L104.026,122.517L82.083,146.38ZM128.117,72.659L113.386,85.422L82.913,144.78L103.656,122.223L128.117,72.659Z" style="fill:white;"/>
        </g>
    </g>
</svg>
