<?xml version="1.0" encoding="UTF-8" standalone="no"?>
<!DOCTYPE svg PUBLIC "-//W3C//DTD SVG 1.1//EN" "http://www.w3.org/Graphics/SVG/1.1/DTD/svg11.dtd">
<svg width="100%" height="100%" viewBox="0 0 256 256" version="1.1" xmlns="http://www.w3.org/2000/svg" xmlns:xlink="http://www.w3.org/1999/xlink" xml:space="preserve" style="fill-rule:evenodd;clip-rule:evenodd;stroke-linecap:round;stroke-linejoin:round;stroke-miterlimit:1.5;">
    <g transform="matrix(1.23908,-1.23908,2.211,2.211,-100.196,145.849)">
        <rect x="56.485" y="23.582" width="85.601" height="47.972" style="fill:none;stroke:white;stroke-width:1.18px;"/>
    </g>
    <g>
        <g transform="matrix(1,0,0,1,-8.27691,5.33681)">
            <path d="M94.946,64.146L78.177,92.982L65.847,141.016L64.732,147.712L77.625,131.201L94.946,64.146Z" style="fill:white;"/>
            <path d="M95.009,63.878L95.09,63.911L95.156,63.968L95.201,64.043L95.221,64.128L95.212,64.215L77.891,131.27L77.872,131.323L77.842,131.37L64.949,147.881L64.882,147.942L64.799,147.978L64.709,147.986L64.621,147.964L64.545,147.914L64.49,147.843L64.461,147.757L64.461,147.667L65.578,140.959L77.911,92.913L77.939,92.844L94.708,64.008L94.764,63.94L94.837,63.893L94.922,63.872L95.009,63.878ZM78.434,93.087L66.117,141.073L65.181,146.69L77.373,131.077L94.181,66.009L78.434,93.087Z" style="fill:rgb(46,16,82);fill-opacity:0.160784;"/>
        </g>
        <g transform="matrix(1,0,0,1,45.5009,20.8194)">
            <path d="M41.418,48.043L46.737,75.036L28.785,125.519L24.08,115.694L41.418,48.043Z" style="fill:white;"/>
            <path d="M41.466,47.772L41.544,47.798L41.61,47.846L41.66,47.912L41.687,47.989L47.007,74.982L47.011,75.056L46.996,75.128L29.044,125.611L29.007,125.682L28.95,125.739L28.879,125.777L28.8,125.793L28.719,125.786L28.645,125.755L28.582,125.704L28.537,125.638L23.832,115.813L23.811,115.753L23.805,115.689L23.814,115.626L41.151,47.974L41.183,47.899L41.236,47.836L41.305,47.792L41.384,47.77L41.466,47.772ZM24.371,115.666L28.748,124.804L46.453,75.015L41.382,49.287L24.371,115.666Z" style="fill:rgb(46,16,82);fill-opacity:0.160784;"/>
        </g>
        <g transform="matrix(1,0,0,1,78.0825,37.0087)">
            <path d="M9.184,32.211L21.133,55.97L21.513,59.714L14.196,58.739L9.184,32.211Z" style="fill:white;"/>
            <path d="M9.225,31.939L9.276,31.952L9.324,31.974L9.366,32.005L9.402,32.043L9.43,32.087L21.379,55.847L21.397,55.894L21.406,55.943L21.786,59.686L21.787,59.736L21.778,59.785L21.761,59.831L21.736,59.874L21.704,59.912L21.666,59.943L21.622,59.966L21.575,59.982L21.526,59.989L21.476,59.987L14.16,59.012L14.112,59.001L14.067,58.982L14.026,58.955L13.99,58.921L13.961,58.882L13.939,58.838L13.926,58.79L8.914,32.262L8.909,32.21L8.914,32.158L8.929,32.107L8.953,32.061L8.986,32.02L9.026,31.986L9.071,31.96L9.121,31.943L9.173,31.936L9.225,31.939ZM14.43,58.493L21.204,59.395L20.864,56.049L9.818,34.083L14.43,58.493Z" style="fill:rgb(46,16,82);fill-opacity:0.160784;"/>
        </g>
        <g transform="matrix(1,0,0,1,78.0825,37.0087)">
            <path d="M-3.839,109.023L-1.609,114.871L21.513,59.714L14.218,58.657L-3.839,109.023Z" style="fill:white;"/>
            <path d="M14.257,58.385L21.552,59.442L21.621,59.461L21.682,59.498L21.732,59.549L21.768,59.611L21.786,59.68L21.785,59.751L21.766,59.82L-1.356,114.977L-1.392,115.04L-1.444,115.09L-1.507,115.126L-1.578,115.144L-1.65,115.143L-1.72,115.123L-1.782,115.085L-1.832,115.032L-1.866,114.969L-4.096,109.121L-4.112,109.058L-4.113,108.993L-4.098,108.93L13.959,58.564L13.994,58.498L14.045,58.443L14.11,58.404L14.182,58.384L14.257,58.385ZM-3.546,109.02L-1.597,114.131L21.122,59.935L14.401,58.961L-3.546,109.02Z" style="fill:rgb(46,16,82);fill-opacity:0.160784;"/>
        </g>
        <g transform="matrix(1,0,0,1,45.5009,20.8194)">
            <path d="M10.72,132.537L24.691,136.328L31.174,130.383L28.785,125.519L24.08,115.694L10.72,132.537Z" style="fill:white;"/>
            <path d="M24.111,115.421L24.156,115.43L24.199,115.447L24.239,115.47L24.275,115.5L24.304,115.536L24.328,115.576L29.033,125.399L31.421,130.262L31.437,130.303L31.446,130.346L31.449,130.39L31.444,130.434L31.432,130.477L31.414,130.517L31.39,130.553L31.36,130.586L24.877,136.531L24.84,136.559L24.8,136.581L24.756,136.595L24.71,136.602L24.664,136.602L24.619,136.594L10.648,132.803L10.606,132.787L10.566,132.765L10.531,132.737L10.501,132.703L10.477,132.665L10.459,132.623L10.449,132.579L10.446,132.534L10.45,132.489L10.461,132.445L10.48,132.404L10.505,132.366L23.864,115.523L23.896,115.49L23.933,115.462L23.974,115.44L24.018,115.426L24.064,115.42L24.111,115.421ZM11.195,132.381L24.617,136.023L30.836,130.32L28.538,125.639L24.022,116.21L11.195,132.381Z" style="fill:rgb(46,16,82);fill-opacity:0.160784;"/>
        </g>
    </g>
    <g transform="matrix(1,0,0,1,149.968,59.8932)">
        <g transform="matrix(1,0,0,1,-8.27691,5.33681)">
            <path d="M-32.36,110.94L-22.016,99.1L39.697,96.455L-18.817,116.092L-32.36,110.94Z" style="fill:white;"/>
            <path d="M39.772,96.19L39.851,96.227L39.914,96.286L39.956,96.363L39.972,96.448L39.96,96.534L39.922,96.613L39.862,96.675L39.785,96.716L-18.729,116.353L-18.791,116.366L-18.854,116.364L-18.915,116.349L-32.458,111.197L-32.534,111.153L-32.592,111.087L-32.627,111.007L-32.634,110.919L-32.614,110.834L-32.567,110.759L-22.224,98.919L-22.168,98.87L-22.101,98.838L-22.028,98.825L39.685,96.18L39.772,96.19ZM-21.887,99.37L-31.893,110.824L-18.811,115.8L37.766,96.813L-21.887,99.37Z" style="fill:rgb(46,16,82);fill-opacity:0.160784;"/>
        </g>
        <g transform="matrix(1,0,0,1,45.5009,20.8194)">
            <path d="M-86.215,117.438L-72.725,100.333L-13.801,81.036L-27.432,98.677L-86.215,117.438Z" style="fill:white;"/>
            <path d="M-13.714,80.775L-13.637,80.815L-13.576,80.877L-13.538,80.956L-13.526,81.042L-13.541,81.128L-13.583,81.204L-27.215,98.845L-27.274,98.902L-27.349,98.939L-86.132,117.7L-86.218,117.713L-86.304,117.699L-86.381,117.658L-86.441,117.595L-86.479,117.516L-86.49,117.43L-86.474,117.344L-86.431,117.268L-72.941,100.163L-72.882,100.108L-72.81,100.072L-13.886,80.775L-13.8,80.761L-13.714,80.775ZM-72.56,100.569L-85.443,116.903L-27.597,98.441L-14.565,81.576L-72.56,100.569Z" style="fill:rgb(46,16,82);fill-opacity:0.160784;"/>
        </g>
        <g transform="matrix(1,0,0,1,78.0825,37.0087)">
            <path d="M-142.916,83.578L-118.984,79.654L-105.247,84.194L-118.482,101.489L-142.916,83.578Z" style="fill:white;"/>
            <path d="M-118.941,79.382L-118.898,79.393L-105.161,83.933L-105.108,83.957L-105.061,83.991L-105.023,84.035L-104.994,84.086L-104.977,84.141L-104.972,84.199L-104.979,84.257L-104.998,84.312L-105.028,84.361L-118.263,101.657L-118.305,101.7L-118.356,101.734L-118.413,101.756L-118.473,101.764L-118.534,101.76L-118.592,101.742L-118.644,101.711L-143.078,83.8L-143.122,83.76L-143.156,83.713L-143.179,83.659L-143.19,83.601L-143.189,83.543L-143.175,83.486L-143.15,83.433L-143.114,83.387L-143.069,83.349L-143.017,83.322L-142.96,83.307L-119.029,79.382L-118.985,79.379L-118.941,79.382ZM-142.225,83.744L-118.536,101.108L-105.7,84.334L-119.007,79.936L-142.225,83.744Z" style="fill:rgb(46,16,82);fill-opacity:0.160784;"/>
        </g>
        <g transform="matrix(1,0,0,1,78.0825,37.0087)">
            <path d="M-118.272,79.047L-108.137,67.664L-128.614,61.127L-142.781,83.311L-118.272,79.047Z" style="fill:white;"/>
            <path d="M-128.53,60.865L-108.054,67.402L-107.998,67.427L-107.949,67.463L-107.91,67.509L-107.882,67.563L-107.866,67.621L-107.863,67.682L-107.873,67.741L-107.897,67.797L-107.932,67.847L-118.066,79.23L-118.112,79.271L-118.166,79.301L-118.225,79.318L-142.734,83.582L-142.792,83.586L-142.849,83.578L-142.903,83.558L-142.952,83.527L-142.993,83.487L-143.025,83.439L-143.046,83.385L-143.056,83.329L-143.053,83.271L-143.039,83.215L-143.013,83.163L-128.846,60.979L-128.808,60.932L-128.761,60.895L-128.708,60.869L-128.649,60.854L-128.589,60.853L-128.53,60.865ZM-142.214,82.934L-118.413,78.792L-108.624,67.797L-128.496,61.454L-142.214,82.934Z" style="fill:rgb(46,16,82);fill-opacity:0.160784;"/>
        </g>
        <g transform="matrix(1,0,0,1,45.5009,20.8194)">
            <path d="M-75.37,83.889L-14.01,80.692L-37.508,70.431L-96.336,77.528L-75.37,83.889Z" style="fill:white;"/>
            <path d="M-37.468,70.159L-37.398,70.179L-13.9,80.44L-13.823,80.49L-13.767,80.563L-13.738,80.649L-13.739,80.741L-13.77,80.827L-13.828,80.898L-13.906,80.947L-13.995,80.966L-75.355,84.164L-75.403,84.162L-75.45,84.152L-96.416,77.792L-96.499,77.75L-96.564,77.683L-96.602,77.598L-96.61,77.505L-96.586,77.414L-96.533,77.337L-96.458,77.282L-96.369,77.255L-37.541,70.158L-37.468,70.159ZM-95.005,77.645L-75.336,83.612L-15.187,80.478L-37.55,70.713L-95.005,77.645Z" style="fill:rgb(46,16,82);fill-opacity:0.160784;"/>
        </g>
    </g>
    <g transform="matrix(-0.607064,-0.794653,0.794653,-0.607064,158.288,297.335)">
        <g transform="matrix(1,0,0,1,-8.27691,5.33681)">
            <path d="M177.095,46.072L144.886,72.617L141.752,102.048L162.362,84.791L177.095,46.072Z" style="fill:white;"/>
            <path d="M162.538,85.002L141.928,102.259L141.859,102.302L141.78,102.322L141.699,102.318L141.622,102.291L141.557,102.243L141.509,102.177L141.482,102.101L141.478,102.019L144.613,72.588L144.629,72.519L144.663,72.456L144.711,72.405L176.92,45.86L176.989,45.819L177.066,45.799L177.146,45.802L177.221,45.828L177.286,45.875L177.335,45.938L177.364,46.013L177.369,46.092L177.352,46.17L162.619,84.889L162.586,84.951L162.538,85.002ZM176.469,46.945L145.148,72.758L142.097,101.4L162.13,84.626L176.469,46.945Z" style="fill:rgb(46,16,82);fill-opacity:0.160784;"/>
        </g>
        <g transform="matrix(1,0,0,1,45.5009,20.8194)">
            <path d="M123.414,30.456L108.491,69.802L113.653,84.984L128.885,71.787L123.414,30.456Z" style="fill:white;"/>
            <path d="M129.065,71.995L113.833,85.192L113.777,85.23L113.714,85.252L113.647,85.259L113.581,85.25L113.519,85.224L113.465,85.185L113.422,85.133L113.393,85.073L108.231,69.89L108.217,69.829L108.218,69.766L108.234,69.704L123.157,30.359L123.191,30.295L123.241,30.242L123.303,30.205L123.373,30.185L123.445,30.183L123.516,30.201L123.579,30.237L123.631,30.288L123.667,30.35L123.686,30.42L129.158,71.751L129.159,71.819L129.142,71.884L129.111,71.944L129.065,71.995ZM123.284,31.573L108.783,69.807L113.782,84.509L128.593,71.676L123.284,31.573Z" style="fill:rgb(46,16,82);fill-opacity:0.160784;"/>
        </g>
        <g transform="matrix(1,0,0,1,78.0825,37.0087)">
            <path d="M58.635,40.879L49.081,129.828L41.517,99.707L58.635,40.879Z" style="fill:white;"/>
            <path d="M49.221,130.065L49.142,130.096L49.057,130.102L48.975,130.082L48.903,130.037L48.847,129.973L48.814,129.895L41.25,99.774L41.242,99.701L41.253,99.63L58.371,40.802L58.41,40.721L58.473,40.656L58.554,40.616L58.643,40.604L58.732,40.621L58.81,40.667L58.869,40.735L58.903,40.818L58.908,40.908L49.354,129.857L49.332,129.939L49.286,130.011L49.221,130.065ZM58.029,43.946L41.802,99.712L48.972,128.266L58.029,43.946Z" style="fill:rgb(46,16,82);fill-opacity:0.160784;"/>
        </g>
        <g transform="matrix(1,0,0,1,78.0825,37.0087)">
            <path d="M55.671,70.198L49.101,129.616L80.6,68.716L75.747,53.453L55.671,70.198Z" style="fill:white;"/>
            <path d="M49.227,129.86L49.147,129.887L49.062,129.888L48.982,129.864L48.912,129.816L48.86,129.749L48.831,129.67L48.827,129.586L55.398,70.168L55.415,70.1L55.448,70.038L55.495,69.987L75.571,53.242L75.648,53.197L75.735,53.179L75.824,53.189L75.904,53.228L75.968,53.29L76.009,53.37L80.862,68.633L80.875,68.704L80.869,68.775L80.845,68.843L49.345,129.742L49.295,129.81L49.227,129.86ZM80.304,68.691L75.609,53.927L55.933,70.338L49.537,128.174L80.304,68.691Z" style="fill:rgb(46,16,82);fill-opacity:0.160784;"/>
        </g>
        <g transform="matrix(1,0,0,1,45.5009,20.8194)">
            <path d="M81.909,146.22L103.852,122.357L128.844,71.717L113.197,85.274L81.909,146.22Z" style="fill:white;"/>
            <path d="M82.112,146.406L82.043,146.461L81.961,146.49L81.873,146.493L81.79,146.468L81.718,146.418L81.666,146.348L81.638,146.265L81.637,146.178L81.665,146.095L112.952,85.148L112.981,85.104L113.017,85.066L128.664,71.509L128.745,71.461L128.837,71.442L128.929,71.455L129.012,71.499L129.076,71.568L129.112,71.655L129.117,71.749L129.091,71.839L104.099,122.479L104.055,122.543L82.112,146.406ZM127.995,72.817L113.417,85.447L83.081,144.539L103.623,122.2L127.995,72.817Z" style="fill:rgb(46,16,82);fill-opacity:0.160784;"/>
        </g>
    </g>
</svg>
